<svg version="1.1" id="Livello_5" xmlns="http://www.w3.org/2000/svg" x="0" y="0" viewBox="0 0 420.8 86.5" xml:space="preserve"><path d="M201.9 1.1v58.2s-2.1 26.5 29.1 26.5c0 0 27.5 1 27.5-26.3V1.1h-17.8v59s-.2 8.3-10.4 8.3c0 0-10.5.5-10.5-8.8V1.1h-17.9zM372.8.6v85.6h48V68.4H392V50h27.8V32.3h-28.1V18.2h29V.5l-47.9.1zm-296.5.5L50.4 47.6s-4.1-5-7.4-7.4c0 0 10.7-7.6 6.4-23.5 0 0-3.5-15.5-24.8-15.5H0l.1 85.2h49.8L58.1 71h18.2v15.3h17.8v-85H76.3v-.2zM18 19.2h7.2c6.7 0 6.3 7 6.3 7 0 6.5-4.4 7.1-4.4 7.1h-9L18 19.2zm17 40.9c0 8.8-9.4 8.5-9.4 8.5h-7.4V50.8l7.5-.1c9.6.1 9.3 9.4 9.3 9.4zm40.8-7.9h-8.2l8.2-15.3v15.3zM177 1.1l-33.9 60.8-5.9-9.4s16.6-4.1 16.6-25.1c0 0-.4-26.3-24.9-26.3l-29 .1v85.2H118V56.2l15 24.6-2.9 5.5h27.7l-3.9-6 5.3-9.9h18v15.9h18.1V1.1H177zm-50.8 37.3h-7.9V18.9h8.2c8.9 0 9.1 9.6 9.1 9.6-.1 10.3-9.4 9.9-9.4 9.9zm51 14.4h-8.9l8.9-16.5v16.5zM364.4 48s-3.7-7.6-10.4-10.4l-5.6-2.2-11-4s-8.1-2.7-6-9.4c0 0 1.8-5.4 9.4-4.4 0 0 5.3 1.5 6 7.9l18-.2S365.8.7 338.6.1c0 0-11.4-1.3-23.5 11 0 0-12.2-14.5-30-10.4 0 0-14.3 3-18.6 16.2 0 0-4.7 15.4 6.6 25.9 0 0 4.4 4 16 7.5 0 0 9.1 3.3 10.5 5.8 0 0 2.8 2.5.6 8.3 0 0-4.8 8.7-14.3 2.3 0 0-4.5-3.5-4.2-8.5l-17.5.2s-1.3 27.3 29.3 27.3c0 0 13.7 1.2 22.1-11.1 0 0 8.1 12.2 25.9 11.2 0 0 12.1-.1 20.2-9.6.1.3 9.6-12.1 2.7-28.2zm-16 12.6c0 8.4-8.7 8.2-8.7 8.2-11.6 0-10.6-10.8-10.6-10.8H319c.2-11.1-8.2-17.5-8.2-17.5-2-1.9-7.4-4-7.4-4l-13.2-4.8c-7-2.3-6.4-7-6.4-7 0-6.8 7-6.9 7-6.9 8.6 0 8.8 8 8.8 8l12.2.2c0 8.3 5.3 12.2 5.3 12.2l2.1 1.6 2.5 1.8L324 43l2.5 1.5 9.8 5.1 7.7 4.2c5 2.8 4.4 6.8 4.4 6.8z" fill="#4b4b4a"/></svg>