<svg version="1.1" id="Livello_1" xmlns="http://www.w3.org/2000/svg" x="0" y="0" width="426" height="154" xml:space="preserve"><style>.st0,.st1{fill:#1a171b}.st1{fill-rule:evenodd;clip-rule:evenodd}</style><path class="st0" d="M5.1 148.5h32.2V4H5.2zM136.2 40.7h-32.5v64.2c0 10.2-5.2 16.4-11.8 16.4-9.7 0-15.3-4.3-15.3-18.2V40.7h-32v69c0 27.4 12.8 40.2 34.3 40.2 10.8 0 20.1-4.1 24.6-8.1l.5 6.7h32l.2-107.8zm104.4 107.8h32.2V4.1h-32.2z"/><path class="st1" d="M330.3 64.7c14.1 0 17.7 13.2 17.7 32.5 0 18.1-6.5 25.8-18 25.8-14.9 0-18.1-13.9-18.1-28.3 0-13.9 3.6-30 18.4-30zm49.9-60.6h-31.8l-.1 44c-5.9-7.1-14.8-9.6-26.9-9.6-28 0-42.8 24.6-42.8 57.8 0 28 12.3 53.7 43.3 53.7 20.4 0 25.7-7.9 25.7-7.9l.8 6.5h31.8V4.1z"/><path class="st0" d="M388.7 148.5h32.1l.1-106.4h-32.2zm0-112h32.2V4.1h-32.2z"/><path class="st1" d="M172.7 114c0-8.2 5.6-12.4 12.3-14.1 6.4-2 10.4-2.8 15.6-4.7 2.7 18-4.3 27.8-17.7 27.8-3.2 0-10.2-1.8-10.2-9zm1.8-37.3c1.4-8.8 3.6-13.3 13.8-13.3 6.1 0 13.1 2 13.2 9.8.2 14.3-60.7-5.5-60.7 43 0 21.4 12.8 33.4 33.2 33.4 10.9 0 17.8-1.4 28.1-7.4.9 1.4 2 4.9 2.9 6.4h30.3c-3.6-8.2-3.1-19.4-3.1-28.2V75.1c0-29.4-22.4-36.8-43.9-36.8-49.6 0-41.5 32.2-42.5 38.5l28.7-.1z"/></svg>