<svg viewBox="0 0 82 82" xmlns="http://www.w3.org/2000/svg" fill-rule="evenodd" clip-rule="evenodd" stroke-linejoin="round" stroke-miterlimit="2"><path d="M41 10.34c12.783 0 23.188 10.4 23.188 23.183C64.188 46.31 53.783 56.71 41 56.71s-23.183-10.4-23.183-23.187c0-12.783 10.4-23.183 23.183-23.183m17.52 51.445c9.472-5.883 15.83-16.291 15.83-28.262C74.35 15.11 59.417.177 41 .177S7.654 15.11 7.654 33.523c0 11.97 6.363 22.383 15.833 28.267-7.716 4.375-13.695 11.479-16.562 20.033h10.887c4.234-8.583 12.992-14.554 23.196-14.554 10.192 0 18.95 5.97 23.18 14.554h10.887c-2.862-8.558-8.846-15.663-16.554-20.038" fill="#1d1d1b" fill-rule="nonzero"/></svg>